<svg width="915" height="193" viewBox="0 0 915 193" fill="none" xmlns="http://www.w3.org/2000/svg">
<path d="M3.51562 174.016L6.46875 163.047H32.9062C38.1562 162.859 42 160.797 44.4375 156.859C45.1875 155.547 45.5625 154.375 45.5625 153.344V143.219C41.7188 145.938 37.875 147.391 34.0312 147.578V136.75C38.1562 136.75 41.4375 135.016 43.875 131.547C45 129.953 45.5625 128.359 45.5625 126.766V92.3125C45.5625 88.75 43.5938 85.9375 39.6562 83.875C37.7812 82.9375 35.9062 82.4688 34.0312 82.4688V71.3594C38.25 71.3594 41.9531 72.6719 45.1406 75.2969C45.3281 75.3906 45.4688 75.4844 45.5625 75.5781V71.3594H56.9531V153.344C56.9531 157.375 55.125 161.547 51.4688 165.859C46.875 171.203 41.2031 173.922 34.4531 174.016H3.51562ZM4.92188 126.906V91.75C5.01562 87.3438 6.98438 83.0312 10.8281 78.8125C15.4219 73.9375 21.0938 71.4531 27.8438 71.3594V82.4688C23.25 82.4688 19.7812 84.4375 17.4375 88.375C16.5938 89.7812 16.1719 91.0469 16.1719 92.1719V126.766C16.1719 129.578 17.625 132.062 20.5312 134.219C22.6875 135.719 25.125 136.469 27.8438 136.469V147.578C19.2188 147.484 12.6562 143.828 8.15625 136.609C6 133.141 4.92188 129.906 4.92188 126.906ZM67.7812 127.188V92.4531C67.7812 88.0469 69.75 83.7344 73.6875 79.5156C78.5625 74.4531 84.6562 71.9219 91.9688 71.9219V83.3125C86.4375 83.3125 82.5938 85.6094 80.4375 90.2031C79.7812 91.6094 79.4531 93.0156 79.4531 94.4219V125.359C79.4531 128.828 81.0469 131.781 84.2344 134.219C86.4844 135.906 89.0625 136.75 91.9688 136.75V148.141C83.0625 148.141 76.1719 144.531 71.2969 137.312C68.9531 133.75 67.7812 130.375 67.7812 127.188ZM98.0156 148.141V136.75C102.984 136.75 106.547 134.5 108.703 130C109.453 128.5 109.828 127.047 109.828 125.641V94.4219C109.828 90.5781 108.188 87.5312 104.906 85.2812C102.844 83.9688 100.5 83.3125 97.875 83.3125V71.9219C106.5 71.9219 113.156 75.4375 117.844 82.4688C120.188 85.9375 121.359 89.2656 121.359 92.4531V127.188C121.359 131.781 119.391 136.234 115.453 140.547C110.859 145.516 105.047 148.047 98.0156 148.141ZM133.031 112.281V101.031H177.469V112.281H133.031ZM188.297 130.281C188.297 135.438 190.828 139.797 195.891 143.359C200.203 146.359 205.266 147.859 211.078 147.859V136.891C202.922 136.703 198.797 133.609 198.703 127.609V123.812C198.797 121.75 199.359 120.25 200.391 119.312C201.516 118.281 206.531 116.688 215.438 114.531C222.375 112.844 227.062 111.344 229.5 110.031V126.203C229.5 132.297 226.547 135.812 220.641 136.75C219.703 136.844 218.812 136.891 217.969 136.891V147.859C224.531 147.766 229.688 146.125 233.438 142.938C236.344 146.219 240.141 147.859 244.828 147.859V136.75C242.391 136.562 241.125 135.016 241.031 132.109V93.5781C241.031 87.5781 238.734 82.3281 234.141 77.8281C229.828 73.7031 224.438 71.6406 217.969 71.6406V82.4688C222.375 82.4688 225.656 84.25 227.812 87.8125C228.938 89.6875 229.5 91.75 229.5 94V96.6719C229.5 99.0156 223.922 101.734 212.766 104.828C202.734 107.641 196.969 109.422 195.469 110.172C190.688 112.984 188.297 117.438 188.297 123.531V130.281ZM189.281 90.7656L199.688 94.7031C199.688 89.4531 201.844 85.7969 206.156 83.7344C207.75 82.9844 209.438 82.6094 211.219 82.6094V71.6406C204.75 71.6406 199.219 73.9844 194.625 78.6719C191.062 82.2344 189.281 86.2656 189.281 90.7656ZM255.375 148V48.7188H267.891V148H255.375ZM277.312 174.016L280.266 163.047H306.703C311.953 162.859 315.797 160.797 318.234 156.859C318.984 155.547 319.359 154.375 319.359 153.344V143.219C315.516 145.938 311.672 147.391 307.828 147.578V136.75C311.953 136.75 315.234 135.016 317.672 131.547C318.797 129.953 319.359 128.359 319.359 126.766V92.3125C319.359 88.75 317.391 85.9375 313.453 83.875C311.578 82.9375 309.703 82.4688 307.828 82.4688V71.3594C312.047 71.3594 315.75 72.6719 318.938 75.2969C319.125 75.3906 319.266 75.4844 319.359 75.5781V71.3594H330.75V153.344C330.75 157.375 328.922 161.547 325.266 165.859C320.672 171.203 315 173.922 308.25 174.016H277.312ZM278.719 126.906V91.75C278.812 87.3438 280.781 83.0312 284.625 78.8125C289.219 73.9375 294.891 71.4531 301.641 71.3594V82.4688C297.047 82.4688 293.578 84.4375 291.234 88.375C290.391 89.7812 289.969 91.0469 289.969 92.1719V126.766C289.969 129.578 291.422 132.062 294.328 134.219C296.484 135.719 298.922 136.469 301.641 136.469V147.578C293.016 147.484 286.453 143.828 281.953 136.609C279.797 133.141 278.719 129.906 278.719 126.906ZM341.578 127.188V92.4531C341.578 88.0469 343.547 83.7344 347.484 79.5156C352.359 74.4531 358.453 71.9219 365.766 71.9219V83.3125C360.234 83.3125 356.391 85.6094 354.234 90.2031C353.578 91.6094 353.25 93.0156 353.25 94.4219V125.359C353.25 128.828 354.844 131.781 358.031 134.219C360.281 135.906 362.859 136.75 365.766 136.75V148.141C356.859 148.141 349.969 144.531 345.094 137.312C342.75 133.75 341.578 130.375 341.578 127.188ZM371.812 148.141V136.75C376.781 136.75 380.344 134.5 382.5 130C383.25 128.5 383.625 127.047 383.625 125.641V94.4219C383.625 90.5781 381.984 87.5312 378.703 85.2812C376.641 83.9688 374.297 83.3125 371.672 83.3125V71.9219C380.297 71.9219 386.953 75.4375 391.641 82.4688C393.984 85.9375 395.156 89.2656 395.156 92.4531V127.188C395.156 131.781 393.188 136.234 389.25 140.547C384.656 145.516 378.844 148.047 371.812 148.141ZM406.406 148V71.9219H418.359V82.3281C420.797 78.2031 424.453 75.1562 429.328 73.1875C431.953 72.1562 434.531 71.6406 437.062 71.6406H439.594L436.781 83.1719C431.625 83.2656 427.031 86.0312 423 91.4688C419.906 95.7812 418.359 100.234 418.359 104.828V148H406.406ZM448.172 61.5156C448.172 58.6094 449.531 56.5469 452.25 55.3281C453.188 54.9531 454.125 54.7656 455.062 54.7656C457.875 54.7656 459.938 56.0781 461.25 58.7031C461.625 59.6406 461.812 60.5781 461.812 61.5156C461.812 64.3281 460.5 66.3906 457.875 67.7031C456.938 68.0781 456 68.2656 455.062 68.2656C452.156 68.2656 450.047 66.9531 448.734 64.3281C448.359 63.3906 448.172 62.4531 448.172 61.5156ZM449.156 148V73.8906H460.969V148H449.156ZM470.672 84.1562V72.7656H479.953V48.4375H491.906V72.7656H500.906V84.2969H491.906V124.656C491.906 131.312 494.625 135.016 500.062 135.766C501.094 135.953 502.125 136.047 503.156 136.047H505.125L507.797 148H502.734C491.203 147.906 484.125 143.594 481.5 135.062C480.562 131.875 480.094 127.938 480.094 123.25L479.953 84.1562H470.672ZM514.266 148.422V48.7188H525.375V78.1094C528.844 75.0156 533.109 73.4219 538.172 73.3281V84.2969C533.953 84.2969 530.391 86.1719 527.484 89.9219C526.172 91.7031 525.516 93.3438 525.516 94.8438V148.422H514.266ZM544.781 84.2969V73.3281C553.5 73.3281 560.062 76.4688 564.469 82.75C566.812 86.125 567.984 89.7344 567.984 93.5781V148.422H556.734V94.8438C556.734 91.2812 555.141 88.4219 551.953 86.2656C549.891 84.9531 547.5 84.2969 544.781 84.2969ZM578.25 148V92.4531C578.25 87.2031 580.219 82.5156 584.156 78.3906C588.562 73.8906 594.141 71.6406 600.891 71.6406V83.1719C595.828 83.1719 592.5 85.375 590.906 89.7812C590.438 91.1875 590.203 92.5938 590.203 94V148H578.25ZM607.219 83.1719V71.6406C614.344 71.8281 619.969 74.3125 624.094 79.0938C628.781 74.3125 634.406 71.8281 640.969 71.6406V83.1719C635.906 83.1719 632.531 85.375 630.844 89.7812C630.375 91.0938 630.141 92.5 630.141 94V148H618.188V94C618.188 89.2188 616.172 85.9375 612.141 84.1562C610.641 83.5 609 83.1719 607.219 83.1719ZM647.297 83.1719V71.6406C656.203 71.6406 662.812 75.2969 667.125 82.6094C669.094 85.9844 670.078 89.2656 670.078 92.4531V148H658.125V94C658.125 88.8438 655.969 85.4688 651.656 83.875C650.344 83.4062 648.891 83.1719 647.297 83.1719ZM678.234 128.031L689.344 125.922C689.344 130.141 691.547 133.469 695.953 135.906C698.109 136.938 700.172 137.5 702.141 137.594V148.703C693.047 148.703 686.25 145.422 681.75 138.859C679.406 135.391 678.234 131.781 678.234 128.031ZM678.938 93.4375C678.938 84.9062 682.828 78.5781 690.609 74.4531C694.359 72.4844 698.109 71.5 701.859 71.5V82.4688C697.547 82.4688 694.219 84.25 691.875 87.8125C690.656 89.5938 690.047 91.4688 690.047 93.4375C690.047 96.4375 692.391 98.875 697.078 100.75C700.641 102.25 707.531 104.219 717.75 106.656C724.125 107.969 728.672 111.109 731.391 116.078C732.797 118.703 733.5 121.656 733.5 124.938C733.5 133.938 729.891 140.594 722.672 144.906C718.453 147.438 713.625 148.703 708.188 148.703V137.594C712.5 137.594 716.109 136.094 719.016 133.094C721.078 130.938 722.109 128.406 722.109 125.5C722.109 121.75 718.406 118.75 711 116.5C709.125 115.938 706.125 115.141 702 114.109C697.594 113.078 694.406 112.234 692.438 111.578C685.312 108.766 681 104.5 679.5 98.7812C679.125 97.0938 678.938 95.3125 678.938 93.4375ZM708.047 82.6094V71.5C716.109 71.5 722.625 74.5 727.594 80.5C730.688 84.3438 732.234 88.375 732.234 92.5938L721.125 94.4219C721.125 89.2656 718.312 85.6562 712.688 83.5938C711 82.9375 709.453 82.6094 708.047 82.6094Z" fill="#00ADD8"/>
<rect x="83.5971" y="171" width="635.338" height="2" fill="#7A7878"/>
</svg>
